<svg width="1150" height="53" viewBox="0 0 1150 53" fill="none" xmlns="http://www.w3.org/2000/svg">
<g clip-path="url(#clip0)">
<path d="M52.8635 23.8034H49.6738L55.8199 6.38779H59.2819L65.389 23.8034H62.0437L60.9156 20.4917H53.9527L52.8635 23.8034ZM57.4536 10.2839L54.9641 17.6475H59.9431L57.4536 10.2839Z" fill="#010202"/>
<path d="M66.0503 17.4138C66.0503 15.4657 66.517 13.9073 67.4506 12.7384C67.9563 12.1151 68.6176 11.6475 69.3178 11.2969C70.0957 10.9073 70.9904 10.7125 71.8462 10.7125C73.7133 10.7125 75.1915 11.3748 76.2807 12.7384C76.9031 13.5177 77.2531 14.5306 77.292 15.5047H74.219C74.219 15.0761 74.0634 14.6865 73.83 14.2969C73.4022 13.6345 72.7798 13.3229 71.8462 13.3618C71.146 13.3229 70.4458 13.6345 69.979 14.141C69.3956 14.7644 69.1233 15.8553 69.1233 17.4138C69.1233 18.9722 69.3956 20.0242 69.979 20.6475C70.4458 21.193 71.146 21.4657 71.8462 21.4657C72.7409 21.4657 73.4022 21.154 73.83 20.4917C74.0634 20.141 74.1801 19.7125 74.219 19.3229H77.292C77.2531 20.3358 76.9031 21.3099 76.2807 22.0891C75.1915 23.4527 73.7133 24.1151 71.8462 24.1151C70.9515 24.1151 70.0957 23.9203 69.3178 23.5307C68.6176 23.18 67.9563 22.7125 67.4506 22.0891C66.517 20.8813 66.0503 19.3229 66.0503 17.4138Z" fill="#010202"/>
<path d="M78.9647 17.4138C78.9647 15.4657 79.4315 13.9073 80.3651 12.7384C80.8707 12.1151 81.532 11.6475 82.2322 11.2969C83.0102 10.9073 83.9048 10.7125 84.7606 10.7125C86.6278 10.7125 88.1059 11.3748 89.1951 12.7384C89.8175 13.5177 90.1676 14.5306 90.2065 15.5047H87.1335C87.1335 15.0761 86.9779 14.6865 86.7445 14.2969C86.3166 13.6345 85.6942 13.3229 84.7606 13.3618C84.0604 13.3229 83.3603 13.6345 82.8935 14.141C82.31 14.7644 82.0377 15.8553 82.0377 17.4138C82.0377 18.9722 82.31 20.0242 82.8935 20.6475C83.3603 21.193 84.0604 21.4657 84.7606 21.4657C85.6553 21.4657 86.3166 21.154 86.7445 20.4917C86.9779 20.141 87.0946 19.7125 87.1335 19.3229H90.2065C90.1676 20.3358 89.8175 21.3099 89.1951 22.0891C88.1059 23.4527 86.6278 24.1151 84.7606 24.1151C83.8659 24.1151 83.0102 23.9203 82.2322 23.5307C81.532 23.18 80.8707 22.7125 80.3651 22.0891C79.4315 20.8813 78.9647 19.3229 78.9647 17.4138Z" fill="#010202"/>
<path d="M97.8695 24.154C96.9749 24.154 96.1191 23.9592 95.3022 23.5696C94.5631 23.2579 93.9408 22.7514 93.4351 22.167C92.4626 20.9203 91.9569 19.3229 91.9569 17.4138C91.9569 15.5047 92.4626 13.9073 93.4351 12.6605C93.9408 12.0371 94.602 11.5696 95.3022 11.2579C96.1191 10.8683 96.9749 10.6735 97.8695 10.7125C98.7642 10.7125 99.62 10.9073 100.437 11.2969C101.176 11.6086 101.798 12.1151 102.304 12.6995C103.276 13.9462 103.782 15.5436 103.782 17.4527C103.782 19.3618 103.276 20.9203 102.304 22.206C101.798 22.8293 101.137 23.2969 100.437 23.6086C99.6589 23.9592 98.7642 24.154 97.8695 24.154ZM97.9084 13.3618C97.1694 13.3618 96.4692 13.6345 95.9635 14.18C95.3411 14.8423 95.0299 15.9332 95.0299 17.4138C95.0299 18.8943 95.3411 19.9852 95.9635 20.6475C96.4692 21.193 97.1694 21.5047 97.9084 21.4657H97.9473C98.6864 21.4657 99.3866 21.193 99.8923 20.6475C100.515 19.9852 100.826 18.8943 100.826 17.4138C100.826 15.9332 100.515 14.8423 99.8923 14.18C99.3477 13.6345 98.6475 13.3229 97.9084 13.3618Z" fill="#010202"/>
<path d="M106.155 19.5566V11.0242H109.228V18.8164C109.228 20.4138 109.967 21.2319 111.445 21.2319C112.029 21.2319 112.612 20.9982 113.001 20.6086C113.624 20.0242 113.935 19.0891 113.935 17.7255V11.0242H117.008V23.8034H114.674L114.324 22.0891C113.974 22.7514 113.468 23.2579 112.807 23.5696C112.107 23.9203 111.329 24.1151 110.512 24.1151C109.15 24.1151 108.061 23.6865 107.283 22.8683C106.544 22.0501 106.155 20.9203 106.155 19.5566Z" fill="#010202"/>
<path d="M120.081 23.8034V11.0242H122.648L122.881 12.6995C123.232 12.0761 123.776 11.5306 124.437 11.219C125.138 10.8683 125.877 10.7125 126.655 10.7125C128.016 10.7125 129.066 11.141 129.844 11.9982C130.622 12.8553 131.011 13.9462 131.011 15.3099V23.8034H127.938V15.9722C127.938 15.193 127.783 14.5696 127.472 14.18C127.16 13.7904 126.616 13.5566 125.838 13.5566C124.865 13.5566 124.126 14.1021 123.621 15.193C123.348 15.8164 123.193 16.9852 123.193 18.6216V23.8034H120.081Z" fill="#010202"/>
<path d="M132.528 13.5566V11.0242H134.862V7.79039L137.935 7.01117V11.0242H141.164V13.5566H137.935V19.8293C137.935 20.7644 138.402 21.2319 139.375 21.2319C140.036 21.2319 140.697 21.193 141.358 21.1151V23.7644C140.503 23.9203 139.608 23.9982 138.713 23.9982C137.43 23.9982 136.496 23.6475 135.835 22.9852C135.174 22.3229 134.862 21.3488 134.862 20.1021V13.5566H132.528Z" fill="#010202"/>
<path d="M147.466 24.154C145.987 24.154 144.82 23.7644 144.004 22.9852C143.187 22.2449 142.759 21.2319 142.759 20.141C142.72 19.0891 143.148 18.0371 143.965 17.3358C144.782 16.6345 145.832 16.2449 147.077 16.167L150.889 15.8943V15.1151C150.889 14.4917 150.733 13.9852 150.422 13.6345C150.111 13.2839 149.527 13.1281 148.71 13.1281C147.232 13.1281 146.454 13.7125 146.376 14.8813H143.342C143.42 13.5177 143.965 12.4657 144.937 11.7644C145.91 11.0631 147.193 10.7125 148.71 10.7125C151.239 10.7125 152.911 11.6086 153.573 13.3618C153.806 13.9852 153.962 14.8423 153.923 15.9722V20.6475C153.884 20.8813 153.962 21.0761 154.078 21.2709C154.234 21.3878 154.429 21.4657 154.623 21.4657L155.012 21.4268V23.7255C154.545 23.9592 154.04 24.0761 153.534 24.0761H153.495C152.911 24.1151 152.367 23.9203 151.939 23.5307C151.55 23.18 151.317 22.7514 151.278 22.2449C150.928 22.8294 150.383 23.3358 149.761 23.6475C149.099 23.9592 148.282 24.154 147.466 24.154ZM150.928 18.1151L147.621 18.3488C147.154 18.3878 146.727 18.5436 146.376 18.8553C146.026 19.1281 145.832 19.5566 145.871 20.0242C145.871 20.4527 146.065 20.8813 146.415 21.154C146.765 21.4268 147.232 21.5826 147.699 21.5826C148.671 21.5826 149.488 21.3099 150.072 20.8034C150.655 20.2969 150.967 19.5956 150.967 18.6605L150.928 18.1151Z" fill="#010202"/>
<path d="M157.229 23.8034V11.0242H159.797L160.03 12.6995C160.38 12.0761 160.925 11.5306 161.586 11.219C162.286 10.8683 163.025 10.7125 163.803 10.7125C165.165 10.7125 166.215 11.141 166.993 11.9982C167.771 12.8553 168.16 13.9462 168.16 15.3099V23.8034H165.087V15.9722C165.087 15.193 164.931 14.5696 164.62 14.18C164.309 13.7904 163.764 13.5566 162.986 13.5566C162.014 13.5566 161.275 14.1021 160.769 15.193C160.497 15.8164 160.341 16.9852 160.341 18.6216V23.8034H157.229Z" fill="#010202"/>
<path d="M170.338 17.4138C170.338 15.4657 170.805 13.9073 171.738 12.7384C172.244 12.1151 172.905 11.6475 173.606 11.2969C174.384 10.9073 175.278 10.7125 176.134 10.7125C178.001 10.7125 179.479 11.3748 180.569 12.7384C181.191 13.5177 181.541 14.5306 181.58 15.5047H178.507C178.507 15.0761 178.351 14.6865 178.118 14.2969C177.69 13.6345 177.068 13.3229 176.134 13.3618C175.434 13.3229 174.734 13.6345 174.267 14.141C173.683 14.7644 173.411 15.8553 173.411 17.4138C173.411 18.9722 173.683 20.0242 174.267 20.6475C174.734 21.193 175.434 21.4657 176.134 21.4657C177.029 21.4657 177.69 21.154 178.118 20.4917C178.351 20.141 178.468 19.7125 178.507 19.3229H181.58C181.541 20.3358 181.191 21.3099 180.569 22.0891C179.479 23.4527 178.001 24.1151 176.134 24.1151C175.239 24.1151 174.384 23.9203 173.606 23.5307C172.905 23.18 172.244 22.7125 171.738 22.0891C170.805 20.8813 170.338 19.3229 170.338 17.4138Z" fill="#010202"/>
<path d="M181.963 11.0288H185.347L188.693 20.2626L191.882 11.0288H194.994L189.354 25.9899C188.537 28.1327 187.214 29.1847 185.425 29.1847C184.608 29.1847 183.83 29.0678 183.052 28.873V26.3405C183.636 26.4574 184.219 26.5353 184.764 26.5743C185.503 26.5743 185.97 26.2626 186.242 25.6003L186.981 23.8081L181.963 11.0288Z" fill="#010202"/>
<path d="M51.0742 40.9852C50.763 39.6216 50.6074 38.2579 50.6463 36.8553C50.6074 35.4917 50.763 34.0891 51.0742 32.7255C51.3854 31.5956 51.9689 30.5826 52.7858 29.7644C54.1083 28.4397 55.7421 27.8164 57.7259 27.8164C59.7098 27.8164 61.3824 28.4787 62.6661 29.8423C63.5996 30.8164 64.1442 32.0631 64.2998 33.6216H61.1101C61.0323 32.9592 60.76 32.2969 60.3321 31.7904C59.7487 31.0891 58.8929 30.6995 57.687 30.6995C56.6756 30.6605 55.7032 31.0891 55.003 31.8683C54.614 32.2969 54.3028 32.8423 54.1472 33.4268C53.9916 33.9722 53.8749 34.5177 53.836 35.0631C53.7971 35.4917 53.7971 36.1151 53.7971 36.8553C53.7971 37.5956 53.7971 38.219 53.836 38.6475C53.8749 39.193 53.9916 39.7774 54.1472 40.2839C54.3028 40.8683 54.5751 41.4138 55.003 41.8423C55.7032 42.5826 56.6756 43.0112 57.687 43.0112C58.854 43.0112 59.7098 42.6605 60.3321 41.9203C60.7989 41.3748 61.0712 40.7125 61.1101 40.0112H64.2998C64.1442 41.5696 63.5996 42.8553 62.6661 43.8294C61.3824 45.193 59.5931 45.9333 57.7259 45.8943C55.7421 45.8943 54.1083 45.232 52.7858 43.9462C51.9689 43.167 51.3854 42.1151 51.0742 40.9852Z" fill="#010202"/>
<path d="M66.4781 42.3099V27.8164H69.5512V41.7644C69.5123 42.0761 69.629 42.4268 69.7845 42.6995C69.9401 42.8943 70.2902 43.0112 70.757 43.0112C70.8348 43.0112 70.9515 43.0112 71.0682 43.0112C71.1849 43.0112 71.2238 43.0112 71.3016 43.0112V45.6216C70.8737 45.6995 70.4069 45.7774 69.9401 45.7774C68.851 45.7774 67.9952 45.5047 67.3728 44.9592C66.7893 44.3748 66.4781 43.4787 66.4781 42.3099Z" fill="#010202"/>
<path d="M78.4201 45.9333C77.5254 45.9333 76.6697 45.7384 75.8528 45.3488C75.1137 45.0371 74.4913 44.5307 73.9856 43.9462C73.0132 42.6995 72.5075 41.1021 72.5075 39.193C72.5075 37.2839 73.0132 35.7255 73.9856 34.4397C74.4913 33.8164 75.1526 33.3488 75.8528 33.0371C76.6697 32.6475 77.5254 32.4527 78.4201 32.4917C79.3148 32.4917 80.1705 32.6865 80.9874 33.0761C81.7265 33.3878 82.3489 33.8943 82.8546 34.4787C83.827 35.7255 84.3327 37.3229 84.3327 39.232C84.3327 41.141 83.827 42.6995 82.8546 43.9852C82.3489 44.6086 81.6876 45.0761 80.9874 45.3878C80.1705 45.7384 79.3148 45.9333 78.4201 45.9333ZM78.4201 35.141C77.681 35.141 76.9808 35.4138 76.4752 35.9592C75.8528 36.6216 75.5416 37.7125 75.5416 39.193C75.5416 40.6735 75.8528 41.7644 76.4752 42.4268C76.9808 42.9722 77.681 43.2839 78.4201 43.2449C79.1592 43.2449 79.8594 42.9722 80.365 42.4268C80.9874 41.7644 81.2986 40.6735 81.2986 39.193C81.2986 37.7125 80.9874 36.6216 80.365 35.9592C79.8594 35.4138 79.1592 35.1021 78.4201 35.141Z" fill="#010202"/>
<path d="M86.55 41.3358V32.8034H89.623V40.5956C89.623 42.2319 90.362 43.0112 91.8402 43.0112C92.4237 43.0112 93.0072 42.7774 93.3962 42.3878C94.0185 41.8034 94.3297 40.8683 94.3297 39.5047V32.8034H97.4027V45.6216H95.0688L94.7187 43.9073C94.3686 44.5696 93.8629 45.0761 93.2017 45.3878C92.5015 45.7384 91.7235 45.9333 90.9066 45.9333C89.5452 45.9333 88.456 45.5047 87.678 44.6865C86.9778 43.8294 86.55 42.7384 86.55 41.3358Z" fill="#010202"/>
<path d="M105.144 45.8943C104.016 45.8943 102.887 45.5436 102.032 44.8034C100.554 43.5566 99.7756 41.6865 99.7756 39.2319C99.7756 36.6995 100.554 34.7904 102.032 33.5047C102.926 32.8034 104.016 32.4527 105.144 32.4527C106.7 32.4527 107.828 32.8423 108.489 33.6605V27.8164H111.562V45.6216H108.917L108.722 44.2579C108.022 45.3488 106.816 45.8943 105.144 45.8943ZM105.766 35.0242C104.949 35.0242 104.171 35.3748 103.704 36.0371C103.16 36.7384 102.887 37.7904 102.887 39.154C102.887 40.5566 103.16 41.6086 103.704 42.3099C104.171 42.9722 104.949 43.3618 105.766 43.3229C106.466 43.3618 107.166 43.0891 107.672 42.6216C108.333 41.9592 108.683 40.7904 108.683 39.154C108.683 37.7904 108.45 36.7384 107.944 36.0371C107.439 35.3748 106.7 35.0242 105.766 35.0242Z" fill="#010202"/>
<path d="M20.8498 46.9852C9.29683 46.9462 -0.0388998 37.5177 -9.51739e-07 25.9462C0.0388979 14.3748 9.45242 4.9852 21.0443 5.02416C29.4075 5.06312 36.9539 10.0891 40.2214 17.8034C44.7337 28.4787 39.7157 40.8294 29.0186 45.3099C26.4512 46.4397 23.6505 46.9852 20.8498 46.9852ZM19.2938 22.6735C19.1771 22.6735 19.0604 22.6735 18.9437 22.6735C17.1544 22.7125 15.5595 23.219 14.2759 24.154C11.2807 26.2969 10.5805 30.4657 12.7199 33.4657C13.07 33.9333 13.459 34.4008 13.9258 34.7514C14.5482 35.3358 15.2873 35.7644 16.0652 36.1151C16.8821 36.4657 17.7768 36.6605 18.6715 36.6995C18.7882 36.6995 18.9048 36.6995 19.0215 36.6995C20.5775 36.6995 22.0946 36.232 23.3782 35.3358L23.7283 35.1021V31.4787C22.2502 32.6475 20.7331 33.2709 19.3327 33.2709C19.2549 33.2709 19.1771 33.2709 19.0604 33.2709C17.8157 33.232 16.6487 32.6475 15.8707 31.6735C15.0928 30.6995 14.8983 29.4138 15.3262 28.2449C15.8707 26.8813 17.3489 25.9073 19.0993 25.7125C19.2938 25.6735 19.5272 25.6735 19.7606 25.6735C21.1221 25.6735 22.4835 26.0631 23.6894 26.4917V23.4138C22.289 22.9462 20.8109 22.7125 19.2938 22.6735ZM20.7331 17.141C20.8498 17.141 20.9665 17.141 21.0832 17.141C22.289 17.18 23.4171 17.7255 24.234 18.6216C25.0509 19.5177 25.5177 20.6865 25.5177 21.8943V33.5436C25.5177 34.9852 26.6846 36.1151 28.1239 36.1151H31.5081V32.8034H29.1741V22.167C29.213 17.6865 25.6344 14.0631 21.1999 13.9462C21.0832 13.9462 20.9665 13.9462 20.8498 13.9462C18.3214 13.9462 16.0652 14.7644 14.5871 16.206C13.2645 17.4917 12.5254 19.2449 12.5254 21.232H16.143C16.143 20.141 16.4931 19.1281 17.0766 18.5436C18.0491 17.5696 19.1771 17.141 20.7331 17.141Z" fill="#010202"/>
</g>
<path d="M847.5 26C847.5 11.9167 858.917 0.5 873 0.5H917C931.083 0.5 942.5 11.9167 942.5 26C942.5 40.0833 931.083 51.5 917 51.5H873C858.917 51.5 847.5 40.0833 847.5 26Z" stroke="black"/>
<path d="M875.779 29.8818H881.378V32H873.143V19.2031H875.779V29.8818ZM882.336 27.1572C882.336 26.2139 882.518 25.373 882.881 24.6348C883.244 23.8965 883.766 23.3252 884.445 22.9209C885.131 22.5166 885.925 22.3145 886.827 22.3145C888.11 22.3145 889.156 22.707 889.965 23.4922C890.779 24.2773 891.233 25.3438 891.327 26.6914L891.345 27.3418C891.345 28.8008 890.938 29.9727 890.123 30.8574C889.309 31.7363 888.216 32.1758 886.845 32.1758C885.474 32.1758 884.378 31.7363 883.558 30.8574C882.743 29.9785 882.336 28.7832 882.336 27.2715V27.1572ZM884.876 27.3418C884.876 28.2441 885.046 28.9355 885.386 29.416C885.726 29.8906 886.212 30.1279 886.845 30.1279C887.46 30.1279 887.94 29.8936 888.286 29.4248C888.632 28.9502 888.805 28.1943 888.805 27.1572C888.805 26.2725 888.632 25.5869 888.286 25.1006C887.94 24.6143 887.454 24.3711 886.827 24.3711C886.206 24.3711 885.726 24.6143 885.386 25.1006C885.046 25.5811 884.876 26.3281 884.876 27.3418ZM892.54 27.1748C892.54 25.7158 892.886 24.541 893.577 23.6504C894.274 22.7598 895.212 22.3145 896.39 22.3145C897.433 22.3145 898.244 22.6719 898.824 23.3867L898.93 22.4902H901.232V31.6836C901.232 32.5156 901.042 33.2393 900.661 33.8545C900.286 34.4697 899.756 34.9385 899.07 35.2607C898.385 35.583 897.582 35.7441 896.662 35.7441C895.965 35.7441 895.285 35.6035 894.623 35.3223C893.961 35.0469 893.46 34.6895 893.12 34.25L894.245 32.7031C894.878 33.4121 895.646 33.7666 896.548 33.7666C897.222 33.7666 897.746 33.585 898.121 33.2217C898.496 32.8643 898.684 32.3545 898.684 31.6924V31.1826C898.098 31.8447 897.327 32.1758 896.372 32.1758C895.229 32.1758 894.304 31.7305 893.595 30.8398C892.892 29.9434 892.54 28.7568 892.54 27.2803V27.1748ZM895.08 27.3594C895.08 28.2207 895.253 28.8975 895.599 29.3896C895.944 29.876 896.419 30.1191 897.022 30.1191C897.796 30.1191 898.35 29.8291 898.684 29.249V25.25C898.344 24.6699 897.796 24.3799 897.04 24.3799C896.431 24.3799 895.95 24.6289 895.599 25.127C895.253 25.625 895.08 26.3691 895.08 27.3594ZM905.873 32H903.324V22.4902H905.873V32ZM903.175 20.0293C903.175 19.6484 903.301 19.335 903.553 19.0889C903.811 18.8428 904.159 18.7197 904.599 18.7197C905.032 18.7197 905.378 18.8428 905.636 19.0889C905.894 19.335 906.022 19.6484 906.022 20.0293C906.022 20.416 905.891 20.7324 905.627 20.9785C905.369 21.2246 905.026 21.3477 904.599 21.3477C904.171 21.3477 903.825 21.2246 903.562 20.9785C903.304 20.7324 903.175 20.416 903.175 20.0293ZM910.312 22.4902L910.391 23.5889C911.07 22.7393 911.981 22.3145 913.124 22.3145C914.132 22.3145 914.882 22.6104 915.374 23.2021C915.866 23.7939 916.118 24.6787 916.13 25.8564V32H913.59V25.918C913.59 25.3789 913.473 24.9893 913.238 24.749C913.004 24.5029 912.614 24.3799 912.069 24.3799C911.354 24.3799 910.818 24.6846 910.461 25.2939V32H907.921V22.4902H910.312Z" fill="black"/>
<path d="M961 26C961 12.1929 972.193 1 986 1H1125C1138.81 1 1150 12.1929 1150 26C1150 39.8071 1138.81 51 1125 51H986C972.193 51 961 39.8071 961 26Z" fill="black"/>
<path d="M995.775 21.3389H991.855V32H989.219V21.3389H985.352V19.2031H995.775V21.3389ZM1001.15 32C1001.04 31.7715 1000.95 31.4873 1000.9 31.1475C1000.28 31.833 999.484 32.1758 998.5 32.1758C997.568 32.1758 996.795 31.9062 996.18 31.3672C995.57 30.8281 995.266 30.1484 995.266 29.3281C995.266 28.3203 995.638 27.5469 996.382 27.0078C997.132 26.4688 998.213 26.1963 999.625 26.1904H1000.79V25.6455C1000.79 25.2061 1000.68 24.8545 1000.45 24.5908C1000.23 24.3271 999.874 24.1953 999.388 24.1953C998.96 24.1953 998.623 24.2979 998.377 24.5029C998.137 24.708 998.017 24.9893 998.017 25.3467H995.477C995.477 24.7959 995.646 24.2861 995.986 23.8174C996.326 23.3486 996.807 22.9824 997.428 22.7188C998.049 22.4492 998.746 22.3145 999.52 22.3145C1000.69 22.3145 1001.62 22.6104 1002.31 23.2021C1003 23.7881 1003.34 24.6143 1003.34 25.6807V29.8027C1003.35 30.7051 1003.47 31.3877 1003.72 31.8506V32H1001.15ZM999.054 30.2334C999.429 30.2334 999.774 30.1514 1000.09 29.9873C1000.41 29.8174 1000.64 29.5918 1000.79 29.3105V27.6758H999.845C998.573 27.6758 997.896 28.1152 997.814 28.9941L997.806 29.1436C997.806 29.46 997.917 29.7207 998.14 29.9258C998.362 30.1309 998.667 30.2334 999.054 30.2334ZM1007.97 32H1005.43V18.5H1007.97V32ZM1013.53 28.1855L1012.62 29.0996V32H1010.08V18.5H1012.62V25.9795L1013.11 25.3467L1015.54 22.4902H1018.59L1015.16 26.4541L1018.89 32H1015.97L1013.53 28.1855ZM1027.21 20.1523V22.4902H1028.84V24.3535H1027.21V29.0996C1027.21 29.4512 1027.28 29.7031 1027.42 29.8555C1027.55 30.0078 1027.81 30.084 1028.19 30.084C1028.47 30.084 1028.72 30.0635 1028.94 30.0225V31.9473C1028.44 32.0996 1027.93 32.1758 1027.4 32.1758C1025.62 32.1758 1024.71 31.2764 1024.67 29.4775V24.3535H1023.29V22.4902H1024.67V20.1523H1027.21ZM1029.6 27.1572C1029.6 26.2139 1029.78 25.373 1030.14 24.6348C1030.5 23.8965 1031.03 23.3252 1031.71 22.9209C1032.39 22.5166 1033.18 22.3145 1034.09 22.3145C1035.37 22.3145 1036.42 22.707 1037.22 23.4922C1038.04 24.2773 1038.49 25.3438 1038.59 26.6914L1038.6 27.3418C1038.6 28.8008 1038.2 29.9727 1037.38 30.8574C1036.57 31.7363 1035.48 32.1758 1034.1 32.1758C1032.73 32.1758 1031.64 31.7363 1030.82 30.8574C1030 29.9785 1029.6 28.7832 1029.6 27.2715V27.1572ZM1032.14 27.3418C1032.14 28.2441 1032.31 28.9355 1032.65 29.416C1032.99 29.8906 1033.47 30.1279 1034.1 30.1279C1034.72 30.1279 1035.2 29.8936 1035.55 29.4248C1035.89 28.9502 1036.06 28.1943 1036.06 27.1572C1036.06 26.2725 1035.89 25.5869 1035.55 25.1006C1035.2 24.6143 1034.71 24.3711 1034.09 24.3711C1033.47 24.3711 1032.99 24.6143 1032.65 25.1006C1032.31 25.5811 1032.14 26.3281 1032.14 27.3418ZM1050.16 32C1050.04 31.7715 1049.96 31.4873 1049.91 31.1475C1049.29 31.833 1048.49 32.1758 1047.51 32.1758C1046.58 32.1758 1045.8 31.9062 1045.19 31.3672C1044.58 30.8281 1044.27 30.1484 1044.27 29.3281C1044.27 28.3203 1044.65 27.5469 1045.39 27.0078C1046.14 26.4688 1047.22 26.1963 1048.63 26.1904H1049.8V25.6455C1049.8 25.2061 1049.69 24.8545 1049.46 24.5908C1049.24 24.3271 1048.88 24.1953 1048.4 24.1953C1047.97 24.1953 1047.63 24.2979 1047.38 24.5029C1047.14 24.708 1047.02 24.9893 1047.02 25.3467H1044.48C1044.48 24.7959 1044.65 24.2861 1044.99 23.8174C1045.33 23.3486 1045.81 22.9824 1046.44 22.7188C1047.06 22.4492 1047.75 22.3145 1048.53 22.3145C1049.7 22.3145 1050.63 22.6104 1051.31 23.2021C1052 23.7881 1052.35 24.6143 1052.35 25.6807V29.8027C1052.36 30.7051 1052.48 31.3877 1052.73 31.8506V32H1050.16ZM1048.06 30.2334C1048.44 30.2334 1048.78 30.1514 1049.1 29.9873C1049.42 29.8174 1049.65 29.5918 1049.8 29.3105V27.6758H1048.85C1047.58 27.6758 1046.9 28.1152 1046.82 28.9941L1046.81 29.1436C1046.81 29.46 1046.92 29.7207 1047.15 29.9258C1047.37 30.1309 1047.67 30.2334 1048.06 30.2334ZM1056.64 22.4902L1056.72 23.5889C1057.4 22.7393 1058.31 22.3145 1059.45 22.3145C1060.46 22.3145 1061.21 22.6104 1061.7 23.2021C1062.19 23.7939 1062.45 24.6787 1062.46 25.8564V32H1059.92V25.918C1059.92 25.3789 1059.8 24.9893 1059.57 24.749C1059.33 24.5029 1058.94 24.3799 1058.4 24.3799C1057.68 24.3799 1057.15 24.6846 1056.79 25.2939V32H1054.25V22.4902H1056.64ZM1076.74 26.4541H1071.68V29.8818H1077.62V32H1069.04V19.2031H1077.6V21.3389H1071.68V24.3887H1076.74V26.4541ZM1082.62 25.3291L1084.22 22.4902H1086.94L1084.23 27.1484L1087.05 32H1084.33L1082.63 29.0117L1080.94 32H1078.21L1081.03 27.1484L1078.33 22.4902H1081.06L1082.62 25.3291ZM1096.72 27.333C1096.72 28.7979 1096.38 29.9727 1095.72 30.8574C1095.05 31.7363 1094.16 32.1758 1093.03 32.1758C1092.07 32.1758 1091.29 31.8418 1090.7 31.1738V35.6562H1088.16V22.4902H1090.51L1090.6 23.4219C1091.22 22.6836 1092.02 22.3145 1093.01 22.3145C1094.18 22.3145 1095.09 22.748 1095.74 23.6152C1096.39 24.4824 1096.72 25.6777 1096.72 27.2012V27.333ZM1094.18 27.1484C1094.18 26.2637 1094.02 25.5811 1093.7 25.1006C1093.39 24.6201 1092.94 24.3799 1092.34 24.3799C1091.54 24.3799 1091 24.6846 1090.7 25.2939V29.1875C1091.01 29.8145 1091.56 30.1279 1092.36 30.1279C1093.57 30.1279 1094.18 29.1348 1094.18 27.1484ZM1102.68 32.1758C1101.28 32.1758 1100.15 31.748 1099.27 30.8926C1098.39 30.0371 1097.96 28.8975 1097.96 27.4736V27.2275C1097.96 26.2725 1098.14 25.4199 1098.51 24.6699C1098.88 23.9141 1099.4 23.334 1100.08 22.9297C1100.75 22.5195 1101.53 22.3145 1102.4 22.3145C1103.7 22.3145 1104.72 22.7246 1105.46 23.5449C1106.21 24.3652 1106.59 25.5283 1106.59 27.0342V28.0713H1100.53C1100.61 28.6924 1100.86 29.1904 1101.27 29.5654C1101.69 29.9404 1102.21 30.1279 1102.84 30.1279C1103.82 30.1279 1104.59 29.7734 1105.14 29.0645L1106.39 30.4619C1106 31.001 1105.49 31.4229 1104.84 31.7275C1104.19 32.0264 1103.47 32.1758 1102.68 32.1758ZM1102.39 24.3711C1101.88 24.3711 1101.47 24.541 1101.16 24.8809C1100.85 25.2207 1100.65 25.707 1100.56 26.3398H1104.09V26.1377C1104.08 25.5752 1103.93 25.1416 1103.63 24.8369C1103.34 24.5264 1102.93 24.3711 1102.39 24.3711ZM1113.38 24.8721C1113.04 24.8252 1112.73 24.8018 1112.47 24.8018C1111.51 24.8018 1110.88 25.127 1110.58 25.7773V32H1108.04V22.4902H1110.44L1110.51 23.624C1111.02 22.751 1111.72 22.3145 1112.63 22.3145C1112.91 22.3145 1113.17 22.3525 1113.42 22.4287L1113.38 24.8721ZM1118.09 20.1523V22.4902H1119.72V24.3535H1118.09V29.0996C1118.09 29.4512 1118.16 29.7031 1118.29 29.8555C1118.43 30.0078 1118.69 30.084 1119.07 30.084C1119.35 30.084 1119.6 30.0635 1119.82 30.0225V31.9473C1119.32 32.0996 1118.8 32.1758 1118.28 32.1758C1116.5 32.1758 1115.59 31.2764 1115.55 29.4775V24.3535H1114.16V22.4902H1115.55V20.1523H1118.09Z" fill="white"/>
<path d="M345.434 29H344.02V24.0708H338.644V29H337.238V18.3359H338.644V22.9209H344.02V18.3359H345.434V29ZM347.36 24.9644C347.36 24.188 347.511 23.4897 347.814 22.8696C348.122 22.2495 348.546 21.771 349.088 21.4341C349.635 21.0972 350.258 20.9287 350.956 20.9287C352.035 20.9287 352.907 21.3022 353.571 22.0493C354.24 22.7964 354.574 23.79 354.574 25.0303V25.1255C354.574 25.897 354.425 26.5903 354.127 27.2056C353.834 27.8159 353.412 28.292 352.86 28.6338C352.313 28.9756 351.684 29.1465 350.971 29.1465C349.896 29.1465 349.025 28.7729 348.356 28.0259C347.692 27.2788 347.36 26.29 347.36 25.0596V24.9644ZM348.722 25.1255C348.722 26.0044 348.925 26.71 349.33 27.2422C349.74 27.7744 350.287 28.0405 350.971 28.0405C351.659 28.0405 352.206 27.772 352.611 27.2349C353.017 26.6929 353.219 25.936 353.219 24.9644C353.219 24.0952 353.012 23.3921 352.597 22.855C352.187 22.313 351.64 22.042 350.956 22.042C350.287 22.042 349.748 22.3081 349.337 22.8403C348.927 23.3726 348.722 24.1343 348.722 25.1255ZM357.548 21.0752L357.584 21.9541C358.166 21.2705 358.949 20.9287 359.936 20.9287C361.044 20.9287 361.798 21.3535 362.199 22.2031C362.462 21.8223 362.804 21.5146 363.224 21.2803C363.649 21.0459 364.149 20.9287 364.726 20.9287C366.464 20.9287 367.348 21.8491 367.377 23.6899V29H366.022V23.7705C366.022 23.2041 365.893 22.7817 365.634 22.5034C365.375 22.2202 364.94 22.0786 364.33 22.0786C363.827 22.0786 363.41 22.23 363.078 22.5327C362.746 22.8306 362.553 23.2334 362.499 23.7412V29H361.137V23.8071C361.137 22.6548 360.573 22.0786 359.445 22.0786C358.556 22.0786 357.948 22.457 357.621 23.2139V29H356.266V21.0752H357.548ZM372.716 29.1465C371.642 29.1465 370.768 28.7949 370.094 28.0918C369.42 27.3838 369.083 26.439 369.083 25.2573V25.0083C369.083 24.2222 369.232 23.5215 369.53 22.9062C369.833 22.2861 370.253 21.8027 370.79 21.4561C371.332 21.1045 371.918 20.9287 372.548 20.9287C373.578 20.9287 374.379 21.2681 374.95 21.9468C375.521 22.6255 375.807 23.5972 375.807 24.8618V25.4258H370.438C370.458 26.207 370.685 26.8394 371.12 27.3228C371.559 27.8013 372.116 28.0405 372.79 28.0405C373.268 28.0405 373.673 27.9429 374.005 27.7476C374.337 27.5522 374.628 27.2935 374.877 26.9712L375.705 27.6157C375.041 28.6362 374.044 29.1465 372.716 29.1465ZM372.548 22.042C372.001 22.042 371.542 22.2422 371.171 22.6426C370.8 23.0381 370.57 23.5947 370.482 24.3125H374.452V24.21C374.413 23.5215 374.228 22.9893 373.896 22.6133C373.563 22.2324 373.114 22.042 372.548 22.042Z" fill="black"/>
<path d="M411.062 30H409.555V24.7422H403.82V30H402.32V18.625H403.82V23.5156H409.555V18.625H411.062V30ZM413.117 25.6953C413.117 24.8672 413.279 24.1224 413.602 23.4609C413.93 22.7995 414.383 22.2891 414.961 21.9297C415.544 21.5703 416.208 21.3906 416.953 21.3906C418.104 21.3906 419.034 21.7891 419.742 22.5859C420.456 23.3828 420.812 24.4427 420.812 25.7656V25.8672C420.812 26.6901 420.654 27.4297 420.336 28.0859C420.023 28.737 419.573 29.2448 418.984 29.6094C418.401 29.974 417.729 30.1562 416.969 30.1562C415.823 30.1562 414.893 29.7578 414.18 28.9609C413.471 28.1641 413.117 27.1094 413.117 25.7969V25.6953ZM414.57 25.8672C414.57 26.8047 414.786 27.5573 415.219 28.125C415.656 28.6927 416.24 28.9766 416.969 28.9766C417.703 28.9766 418.286 28.6901 418.719 28.1172C419.151 27.5391 419.367 26.7318 419.367 25.6953C419.367 24.7682 419.146 24.0182 418.703 23.4453C418.266 22.8672 417.682 22.5781 416.953 22.5781C416.24 22.5781 415.664 22.862 415.227 23.4297C414.789 23.9974 414.57 24.8099 414.57 25.8672ZM430.109 28.0078L431.734 21.5469H433.18L430.719 30H429.547L427.492 23.5938L425.492 30H424.32L421.867 21.5469H423.305L424.969 27.875L426.938 21.5469H428.102L430.109 28.0078ZM440.195 30H438.75V21.5469H440.195V30ZM438.633 19.3047C438.633 19.0703 438.703 18.8724 438.844 18.7109C438.99 18.5495 439.203 18.4688 439.484 18.4688C439.766 18.4688 439.979 18.5495 440.125 18.7109C440.271 18.8724 440.344 19.0703 440.344 19.3047C440.344 19.5391 440.271 19.7344 440.125 19.8906C439.979 20.0469 439.766 20.125 439.484 20.125C439.203 20.125 438.99 20.0469 438.844 19.8906C438.703 19.7344 438.633 19.5391 438.633 19.3047ZM444.477 19.5V21.5469H446.055V22.6641H444.477V27.9062C444.477 28.2448 444.547 28.5 444.688 28.6719C444.828 28.8385 445.068 28.9219 445.406 28.9219C445.573 28.9219 445.802 28.8906 446.094 28.8281V30C445.714 30.1042 445.344 30.1562 444.984 30.1562C444.339 30.1562 443.852 29.9609 443.523 29.5703C443.195 29.1797 443.031 28.625 443.031 27.9062V22.6641H441.492V21.5469H443.031V19.5H444.477ZM459.203 28.0078L460.828 21.5469H462.273L459.812 30H458.641L456.586 23.5938L454.586 30H453.414L450.961 21.5469H452.398L454.062 27.875L456.031 21.5469H457.195L459.203 28.0078ZM463.367 25.6953C463.367 24.8672 463.529 24.1224 463.852 23.4609C464.18 22.7995 464.633 22.2891 465.211 21.9297C465.794 21.5703 466.458 21.3906 467.203 21.3906C468.354 21.3906 469.284 21.7891 469.992 22.5859C470.706 23.3828 471.062 24.4427 471.062 25.7656V25.8672C471.062 26.6901 470.904 27.4297 470.586 28.0859C470.273 28.737 469.823 29.2448 469.234 29.6094C468.651 29.974 467.979 30.1562 467.219 30.1562C466.073 30.1562 465.143 29.7578 464.43 28.9609C463.721 28.1641 463.367 27.1094 463.367 25.7969V25.6953ZM464.82 25.8672C464.82 26.8047 465.036 27.5573 465.469 28.125C465.906 28.6927 466.49 28.9766 467.219 28.9766C467.953 28.9766 468.536 28.6901 468.969 28.1172C469.401 27.5391 469.617 26.7318 469.617 25.6953C469.617 24.7682 469.396 24.0182 468.953 23.4453C468.516 22.8672 467.932 22.5781 467.203 22.5781C466.49 22.5781 465.914 22.862 465.477 23.4297C465.039 23.9974 464.82 24.8099 464.82 25.8672ZM476.961 22.8438C476.742 22.8073 476.505 22.7891 476.25 22.7891C475.302 22.7891 474.659 23.1927 474.32 24V30H472.875V21.5469H474.281L474.305 22.5234C474.779 21.7682 475.451 21.3906 476.32 21.3906C476.602 21.3906 476.815 21.4271 476.961 21.5V22.8438ZM480.656 26.0859L479.75 27.0312V30H478.305V18H479.75V25.2578L480.523 24.3281L483.156 21.5469H484.914L481.625 25.0781L485.297 30H483.602L480.656 26.0859ZM491.328 27.7578C491.328 27.3672 491.18 27.0651 490.883 26.8516C490.591 26.6328 490.078 26.4453 489.344 26.2891C488.615 26.1328 488.034 25.9453 487.602 25.7266C487.174 25.5078 486.857 25.2474 486.648 24.9453C486.445 24.6432 486.344 24.2839 486.344 23.8672C486.344 23.1745 486.635 22.5885 487.219 22.1094C487.807 21.6302 488.557 21.3906 489.469 21.3906C490.427 21.3906 491.203 21.638 491.797 22.1328C492.396 22.6276 492.695 23.2604 492.695 24.0312H491.242C491.242 23.6354 491.073 23.2943 490.734 23.0078C490.401 22.7214 489.979 22.5781 489.469 22.5781C488.943 22.5781 488.531 22.6927 488.234 22.9219C487.938 23.151 487.789 23.4505 487.789 23.8203C487.789 24.1693 487.927 24.4323 488.203 24.6094C488.479 24.7865 488.977 24.9557 489.695 25.1172C490.419 25.2786 491.005 25.4714 491.453 25.6953C491.901 25.9193 492.232 26.1901 492.445 26.5078C492.664 26.8203 492.773 27.2031 492.773 27.6562C492.773 28.4115 492.471 29.0182 491.867 29.4766C491.263 29.9297 490.479 30.1562 489.516 30.1562C488.839 30.1562 488.24 30.0365 487.719 29.7969C487.198 29.5573 486.789 29.224 486.492 28.7969C486.201 28.3646 486.055 27.8984 486.055 27.3984H487.5C487.526 27.8828 487.719 28.2682 488.078 28.5547C488.443 28.8359 488.922 28.9766 489.516 28.9766C490.062 28.9766 490.5 28.8672 490.828 28.6484C491.161 28.4245 491.328 28.1276 491.328 27.7578Z" fill="black"/>
<path d="M521.773 26.4141L521.992 27.9141L522.312 26.5625L524.562 18.625H525.828L528.023 26.5625L528.336 27.9375L528.578 26.4062L530.344 18.625H531.852L529.094 30H527.727L525.383 21.7109L525.203 20.8438L525.023 21.7109L522.594 30H521.227L518.477 18.625H519.977L521.773 26.4141ZM534.742 22.5703C535.383 21.7839 536.216 21.3906 537.242 21.3906C539.029 21.3906 539.93 22.3984 539.945 24.4141V30H538.5V24.4062C538.495 23.7969 538.354 23.3464 538.078 23.0547C537.807 22.763 537.383 22.6172 536.805 22.6172C536.336 22.6172 535.924 22.7422 535.57 22.9922C535.216 23.2422 534.94 23.5703 534.742 23.9766V30H533.297V18H534.742V22.5703ZM547.328 30C547.245 29.8333 547.177 29.5365 547.125 29.1094C546.453 29.8073 545.651 30.1562 544.719 30.1562C543.885 30.1562 543.201 29.9219 542.664 29.4531C542.133 28.9792 541.867 28.3802 541.867 27.6562C541.867 26.776 542.201 26.0938 542.867 25.6094C543.539 25.1198 544.482 24.875 545.695 24.875H547.102V24.2109C547.102 23.7057 546.951 23.3047 546.648 23.0078C546.346 22.7057 545.901 22.5547 545.312 22.5547C544.797 22.5547 544.365 22.6849 544.016 22.9453C543.667 23.2057 543.492 23.5208 543.492 23.8906H542.039C542.039 23.4688 542.188 23.0625 542.484 22.6719C542.786 22.276 543.193 21.9635 543.703 21.7344C544.219 21.5052 544.784 21.3906 545.398 21.3906C546.372 21.3906 547.135 21.6354 547.688 22.125C548.24 22.6094 548.526 23.2786 548.547 24.1328V28.0234C548.547 28.7995 548.646 29.4167 548.844 29.875V30H547.328ZM544.93 28.8984C545.383 28.8984 545.812 28.7812 546.219 28.5469C546.625 28.3125 546.919 28.0078 547.102 27.6328V25.8984H545.969C544.198 25.8984 543.312 26.4167 543.312 27.4531C543.312 27.9062 543.464 28.2604 543.766 28.5156C544.068 28.7708 544.456 28.8984 544.93 28.8984ZM552.773 19.5V21.5469H554.352V22.6641H552.773V27.9062C552.773 28.2448 552.844 28.5 552.984 28.6719C553.125 28.8385 553.365 28.9219 553.703 28.9219C553.87 28.9219 554.099 28.8906 554.391 28.8281V30C554.01 30.1042 553.641 30.1562 553.281 30.1562C552.635 30.1562 552.148 29.9609 551.82 29.5703C551.492 29.1797 551.328 28.625 551.328 27.9062V22.6641H549.789V21.5469H551.328V19.5H552.773ZM567.5 28.0078L569.125 21.5469H570.57L568.109 30H566.938L564.883 23.5938L562.883 30H561.711L559.258 21.5469H560.695L562.359 27.875L564.328 21.5469H565.492L567.5 28.0078ZM575.555 30.1562C574.409 30.1562 573.477 29.7812 572.758 29.0312C572.039 28.276 571.68 27.2682 571.68 26.0078V25.7422C571.68 24.9036 571.839 24.1562 572.156 23.5C572.479 22.8385 572.927 22.3229 573.5 21.9531C574.078 21.5781 574.703 21.3906 575.375 21.3906C576.474 21.3906 577.328 21.7526 577.938 22.4766C578.547 23.2005 578.852 24.237 578.852 25.5859V26.1875H573.125C573.146 27.0208 573.388 27.6953 573.852 28.2109C574.32 28.7214 574.914 28.9766 575.633 28.9766C576.143 28.9766 576.576 28.8724 576.93 28.6641C577.284 28.4557 577.594 28.1797 577.859 27.8359L578.742 28.5234C578.034 29.612 576.971 30.1562 575.555 30.1562ZM575.375 22.5781C574.792 22.5781 574.302 22.7917 573.906 23.2188C573.51 23.6406 573.266 24.2344 573.172 25H577.406V24.8906C577.365 24.1562 577.167 23.5885 576.812 23.1875C576.458 22.7812 575.979 22.5781 575.375 22.5781ZM584.148 25.7031C584.148 24.4062 584.456 23.3646 585.07 22.5781C585.685 21.7865 586.49 21.3906 587.484 21.3906C588.474 21.3906 589.258 21.7292 589.836 22.4062V18H591.281V30H589.953L589.883 29.0938C589.305 29.8021 588.5 30.1562 587.469 30.1562C586.49 30.1562 585.69 29.7552 585.07 28.9531C584.456 28.151 584.148 27.1042 584.148 25.8125V25.7031ZM585.594 25.8672C585.594 26.8255 585.792 27.5755 586.188 28.1172C586.583 28.6589 587.13 28.9297 587.828 28.9297C588.745 28.9297 589.414 28.5182 589.836 27.6953V23.8125C589.404 23.0156 588.74 22.6172 587.844 22.6172C587.135 22.6172 586.583 22.8906 586.188 23.4375C585.792 23.9844 585.594 24.7943 585.594 25.8672ZM593.148 25.6953C593.148 24.8672 593.31 24.1224 593.633 23.4609C593.961 22.7995 594.414 22.2891 594.992 21.9297C595.576 21.5703 596.24 21.3906 596.984 21.3906C598.135 21.3906 599.065 21.7891 599.773 22.5859C600.487 23.3828 600.844 24.4427 600.844 25.7656V25.8672C600.844 26.6901 600.685 27.4297 600.367 28.0859C600.055 28.737 599.604 29.2448 599.016 29.6094C598.432 29.974 597.76 30.1562 597 30.1562C595.854 30.1562 594.924 29.7578 594.211 28.9609C593.503 28.1641 593.148 27.1094 593.148 25.7969V25.6953ZM594.602 25.8672C594.602 26.8047 594.818 27.5573 595.25 28.125C595.688 28.6927 596.271 28.9766 597 28.9766C597.734 28.9766 598.318 28.6901 598.75 28.1172C599.182 27.5391 599.398 26.7318 599.398 25.6953C599.398 24.7682 599.177 24.0182 598.734 23.4453C598.297 22.8672 597.714 22.5781 596.984 22.5781C596.271 22.5781 595.695 22.862 595.258 23.4297C594.82 23.9974 594.602 24.8099 594.602 25.8672Z" fill="black"/>
<path d="M630.773 26.4141L630.992 27.9141L631.312 26.5625L633.562 18.625H634.828L637.023 26.5625L637.336 27.9375L637.578 26.4062L639.344 18.625H640.852L638.094 30H636.727L634.383 21.7109L634.203 20.8438L634.023 21.7109L631.594 30H630.227L627.477 18.625H628.977L630.773 26.4141ZM643.742 22.5703C644.383 21.7839 645.216 21.3906 646.242 21.3906C648.029 21.3906 648.93 22.3984 648.945 24.4141V30H647.5V24.4062C647.495 23.7969 647.354 23.3464 647.078 23.0547C646.807 22.763 646.383 22.6172 645.805 22.6172C645.336 22.6172 644.924 22.7422 644.57 22.9922C644.216 23.2422 643.94 23.5703 643.742 23.9766V30H642.297V18H643.742V22.5703ZM650.727 25.6953C650.727 24.8672 650.888 24.1224 651.211 23.4609C651.539 22.7995 651.992 22.2891 652.57 21.9297C653.154 21.5703 653.818 21.3906 654.562 21.3906C655.714 21.3906 656.643 21.7891 657.352 22.5859C658.065 23.3828 658.422 24.4427 658.422 25.7656V25.8672C658.422 26.6901 658.263 27.4297 657.945 28.0859C657.633 28.737 657.182 29.2448 656.594 29.6094C656.01 29.974 655.339 30.1562 654.578 30.1562C653.432 30.1562 652.503 29.7578 651.789 28.9609C651.081 28.1641 650.727 27.1094 650.727 25.7969V25.6953ZM652.18 25.8672C652.18 26.8047 652.396 27.5573 652.828 28.125C653.266 28.6927 653.849 28.9766 654.578 28.9766C655.312 28.9766 655.896 28.6901 656.328 28.1172C656.76 27.5391 656.977 26.7318 656.977 25.6953C656.977 24.7682 656.755 24.0182 656.312 23.4453C655.875 22.8672 655.292 22.5781 654.562 22.5781C653.849 22.5781 653.273 22.862 652.836 23.4297C652.398 23.9974 652.18 24.8099 652.18 25.8672ZM671.688 28.0078L673.312 21.5469H674.758L672.297 30H671.125L669.07 23.5938L667.07 30H665.898L663.445 21.5469H664.883L666.547 27.875L668.516 21.5469H669.68L671.688 28.0078ZM679.742 30.1562C678.596 30.1562 677.664 29.7812 676.945 29.0312C676.227 28.276 675.867 27.2682 675.867 26.0078V25.7422C675.867 24.9036 676.026 24.1562 676.344 23.5C676.667 22.8385 677.115 22.3229 677.688 21.9531C678.266 21.5781 678.891 21.3906 679.562 21.3906C680.661 21.3906 681.516 21.7526 682.125 22.4766C682.734 23.2005 683.039 24.237 683.039 25.5859V26.1875H677.312C677.333 27.0208 677.576 27.6953 678.039 28.2109C678.508 28.7214 679.102 28.9766 679.82 28.9766C680.331 28.9766 680.763 28.8724 681.117 28.6641C681.471 28.4557 681.781 28.1797 682.047 27.8359L682.93 28.5234C682.221 29.612 681.159 30.1562 679.742 30.1562ZM679.562 22.5781C678.979 22.5781 678.49 22.7917 678.094 23.2188C677.698 23.6406 677.453 24.2344 677.359 25H681.594V24.8906C681.552 24.1562 681.354 23.5885 681 23.1875C680.646 22.7812 680.167 22.5781 679.562 22.5781ZM690.133 22.5703C690.773 21.7839 691.607 21.3906 692.633 21.3906C694.419 21.3906 695.32 22.3984 695.336 24.4141V30H693.891V24.4062C693.885 23.7969 693.745 23.3464 693.469 23.0547C693.198 22.763 692.773 22.6172 692.195 22.6172C691.727 22.6172 691.315 22.7422 690.961 22.9922C690.607 23.2422 690.331 23.5703 690.133 23.9766V30H688.688V18H690.133V22.5703ZM701.008 30.1562C699.862 30.1562 698.93 29.7812 698.211 29.0312C697.492 28.276 697.133 27.2682 697.133 26.0078V25.7422C697.133 24.9036 697.292 24.1562 697.609 23.5C697.932 22.8385 698.38 22.3229 698.953 21.9531C699.531 21.5781 700.156 21.3906 700.828 21.3906C701.927 21.3906 702.781 21.7526 703.391 22.4766C704 23.2005 704.305 24.237 704.305 25.5859V26.1875H698.578C698.599 27.0208 698.841 27.6953 699.305 28.2109C699.773 28.7214 700.367 28.9766 701.086 28.9766C701.596 28.9766 702.029 28.8724 702.383 28.6641C702.737 28.4557 703.047 28.1797 703.312 27.8359L704.195 28.5234C703.487 29.612 702.424 30.1562 701.008 30.1562ZM700.828 22.5781C700.245 22.5781 699.755 22.7917 699.359 23.2188C698.964 23.6406 698.719 24.2344 698.625 25H702.859V24.8906C702.818 24.1562 702.62 23.5885 702.266 23.1875C701.911 22.7812 701.432 22.5781 700.828 22.5781ZM707.555 30H706.109V18H707.555V30ZM717.016 25.8672C717.016 27.1536 716.721 28.1901 716.133 28.9766C715.544 29.763 714.747 30.1562 713.742 30.1562C712.716 30.1562 711.909 29.8307 711.32 29.1797V33.25H709.875V21.5469H711.195L711.266 22.4844C711.854 21.7552 712.672 21.3906 713.719 21.3906C714.734 21.3906 715.536 21.7734 716.125 22.5391C716.719 23.3047 717.016 24.3698 717.016 25.7344V25.8672ZM715.57 25.7031C715.57 24.75 715.367 23.9974 714.961 23.4453C714.555 22.8932 713.997 22.6172 713.289 22.6172C712.414 22.6172 711.758 23.0052 711.32 23.7812V27.8203C711.753 28.5911 712.414 28.9766 713.305 28.9766C713.997 28.9766 714.547 28.7031 714.953 28.1562C715.365 27.6042 715.57 26.7865 715.57 25.7031Z" fill="black"/>
<path d="M747.492 25.3984H744.82V30H743.312V18.625H747.078C748.359 18.625 749.344 18.9167 750.031 19.5C750.724 20.0833 751.07 20.9323 751.07 22.0469C751.07 22.7552 750.878 23.3724 750.492 23.8984C750.112 24.4245 749.581 24.8177 748.898 25.0781L751.57 29.9062V30H749.961L747.492 25.3984ZM744.82 24.1719H747.125C747.87 24.1719 748.461 23.9792 748.898 23.5938C749.341 23.2083 749.562 22.6927 749.562 22.0469C749.562 21.3438 749.352 20.8047 748.93 20.4297C748.513 20.0547 747.909 19.8646 747.117 19.8594H744.82V24.1719ZM756.461 30.1562C755.315 30.1562 754.383 29.7812 753.664 29.0312C752.945 28.276 752.586 27.2682 752.586 26.0078V25.7422C752.586 24.9036 752.745 24.1562 753.062 23.5C753.385 22.8385 753.833 22.3229 754.406 21.9531C754.984 21.5781 755.609 21.3906 756.281 21.3906C757.38 21.3906 758.234 21.7526 758.844 22.4766C759.453 23.2005 759.758 24.237 759.758 25.5859V26.1875H754.031C754.052 27.0208 754.294 27.6953 754.758 28.2109C755.227 28.7214 755.82 28.9766 756.539 28.9766C757.049 28.9766 757.482 28.8724 757.836 28.6641C758.19 28.4557 758.5 28.1797 758.766 27.8359L759.648 28.5234C758.94 29.612 757.878 30.1562 756.461 30.1562ZM756.281 22.5781C755.698 22.5781 755.208 22.7917 754.812 23.2188C754.417 23.6406 754.172 24.2344 754.078 25H758.312V24.8906C758.271 24.1562 758.073 23.5885 757.719 23.1875C757.365 22.7812 756.885 22.5781 756.281 22.5781ZM766.359 27.7578C766.359 27.3672 766.211 27.0651 765.914 26.8516C765.622 26.6328 765.109 26.4453 764.375 26.2891C763.646 26.1328 763.065 25.9453 762.633 25.7266C762.206 25.5078 761.888 25.2474 761.68 24.9453C761.477 24.6432 761.375 24.2839 761.375 23.8672C761.375 23.1745 761.667 22.5885 762.25 22.1094C762.839 21.6302 763.589 21.3906 764.5 21.3906C765.458 21.3906 766.234 21.638 766.828 22.1328C767.427 22.6276 767.727 23.2604 767.727 24.0312H766.273C766.273 23.6354 766.104 23.2943 765.766 23.0078C765.432 22.7214 765.01 22.5781 764.5 22.5781C763.974 22.5781 763.562 22.6927 763.266 22.9219C762.969 23.151 762.82 23.4505 762.82 23.8203C762.82 24.1693 762.958 24.4323 763.234 24.6094C763.51 24.7865 764.008 24.9557 764.727 25.1172C765.451 25.2786 766.036 25.4714 766.484 25.6953C766.932 25.9193 767.263 26.1901 767.477 26.5078C767.695 26.8203 767.805 27.2031 767.805 27.6562C767.805 28.4115 767.503 29.0182 766.898 29.4766C766.294 29.9297 765.51 30.1562 764.547 30.1562C763.87 30.1562 763.271 30.0365 762.75 29.7969C762.229 29.5573 761.82 29.224 761.523 28.7969C761.232 28.3646 761.086 27.8984 761.086 27.3984H762.531C762.557 27.8828 762.75 28.2682 763.109 28.5547C763.474 28.8359 763.953 28.9766 764.547 28.9766C765.094 28.9766 765.531 28.8672 765.859 28.6484C766.193 28.4245 766.359 28.1276 766.359 27.7578ZM769.305 25.6953C769.305 24.8672 769.466 24.1224 769.789 23.4609C770.117 22.7995 770.57 22.2891 771.148 21.9297C771.732 21.5703 772.396 21.3906 773.141 21.3906C774.292 21.3906 775.221 21.7891 775.93 22.5859C776.643 23.3828 777 24.4427 777 25.7656V25.8672C777 26.6901 776.841 27.4297 776.523 28.0859C776.211 28.737 775.76 29.2448 775.172 29.6094C774.589 29.974 773.917 30.1562 773.156 30.1562C772.01 30.1562 771.081 29.7578 770.367 28.9609C769.659 28.1641 769.305 27.1094 769.305 25.7969V25.6953ZM770.758 25.8672C770.758 26.8047 770.974 27.5573 771.406 28.125C771.844 28.6927 772.427 28.9766 773.156 28.9766C773.891 28.9766 774.474 28.6901 774.906 28.1172C775.339 27.5391 775.555 26.7318 775.555 25.6953C775.555 24.7682 775.333 24.0182 774.891 23.4453C774.453 22.8672 773.87 22.5781 773.141 22.5781C772.427 22.5781 771.852 22.862 771.414 23.4297C770.977 23.9974 770.758 24.8099 770.758 25.8672ZM784.031 29.1641C783.469 29.8255 782.643 30.1562 781.555 30.1562C780.654 30.1562 779.966 29.8958 779.492 29.375C779.023 28.849 778.786 28.0729 778.781 27.0469V21.5469H780.227V27.0078C780.227 28.2891 780.747 28.9297 781.789 28.9297C782.893 28.9297 783.628 28.5182 783.992 27.6953V21.5469H785.438V30H784.062L784.031 29.1641ZM791.727 22.8438C791.508 22.8073 791.271 22.7891 791.016 22.7891C790.068 22.7891 789.424 23.1927 789.086 24V30H787.641V21.5469H789.047L789.07 22.5234C789.544 21.7682 790.216 21.3906 791.086 21.3906C791.367 21.3906 791.581 21.4271 791.727 21.5V22.8438ZM796.297 28.9766C796.812 28.9766 797.263 28.8203 797.648 28.5078C798.034 28.1953 798.247 27.8047 798.289 27.3359H799.656C799.63 27.8203 799.464 28.2812 799.156 28.7188C798.849 29.1562 798.438 29.5052 797.922 29.7656C797.411 30.026 796.87 30.1562 796.297 30.1562C795.146 30.1562 794.229 29.7734 793.547 29.0078C792.87 28.237 792.531 27.1849 792.531 25.8516V25.6094C792.531 24.7865 792.682 24.0547 792.984 23.4141C793.286 22.7734 793.719 22.276 794.281 21.9219C794.849 21.5677 795.518 21.3906 796.289 21.3906C797.237 21.3906 798.023 21.6745 798.648 22.2422C799.279 22.8099 799.615 23.5469 799.656 24.4531H798.289C798.247 23.9062 798.039 23.4583 797.664 23.1094C797.294 22.7552 796.836 22.5781 796.289 22.5781C795.555 22.5781 794.984 22.8438 794.578 23.375C794.177 23.901 793.977 24.6641 793.977 25.6641V25.9375C793.977 26.9115 794.177 27.6615 794.578 28.1875C794.979 28.7135 795.552 28.9766 796.297 28.9766ZM804.789 30.1562C803.643 30.1562 802.711 29.7812 801.992 29.0312C801.273 28.276 800.914 27.2682 800.914 26.0078V25.7422C800.914 24.9036 801.073 24.1562 801.391 23.5C801.714 22.8385 802.161 22.3229 802.734 21.9531C803.312 21.5781 803.938 21.3906 804.609 21.3906C805.708 21.3906 806.562 21.7526 807.172 22.4766C807.781 23.2005 808.086 24.237 808.086 25.5859V26.1875H802.359C802.38 27.0208 802.622 27.6953 803.086 28.2109C803.555 28.7214 804.148 28.9766 804.867 28.9766C805.378 28.9766 805.81 28.8724 806.164 28.6641C806.518 28.4557 806.828 28.1797 807.094 27.8359L807.977 28.5234C807.268 29.612 806.206 30.1562 804.789 30.1562ZM804.609 22.5781C804.026 22.5781 803.536 22.7917 803.141 23.2188C802.745 23.6406 802.5 24.2344 802.406 25H806.641V24.8906C806.599 24.1562 806.401 23.5885 806.047 23.1875C805.693 22.7812 805.214 22.5781 804.609 22.5781ZM814.688 27.7578C814.688 27.3672 814.539 27.0651 814.242 26.8516C813.951 26.6328 813.438 26.4453 812.703 26.2891C811.974 26.1328 811.393 25.9453 810.961 25.7266C810.534 25.5078 810.216 25.2474 810.008 24.9453C809.805 24.6432 809.703 24.2839 809.703 23.8672C809.703 23.1745 809.995 22.5885 810.578 22.1094C811.167 21.6302 811.917 21.3906 812.828 21.3906C813.786 21.3906 814.562 21.638 815.156 22.1328C815.755 22.6276 816.055 23.2604 816.055 24.0312H814.602C814.602 23.6354 814.432 23.2943 814.094 23.0078C813.76 22.7214 813.339 22.5781 812.828 22.5781C812.302 22.5781 811.891 22.6927 811.594 22.9219C811.297 23.151 811.148 23.4505 811.148 23.8203C811.148 24.1693 811.286 24.4323 811.562 24.6094C811.839 24.7865 812.336 24.9557 813.055 25.1172C813.779 25.2786 814.365 25.4714 814.812 25.6953C815.26 25.9193 815.591 26.1901 815.805 26.5078C816.023 26.8203 816.133 27.2031 816.133 27.6562C816.133 28.4115 815.831 29.0182 815.227 29.4766C814.622 29.9297 813.839 30.1562 812.875 30.1562C812.198 30.1562 811.599 30.0365 811.078 29.7969C810.557 29.5573 810.148 29.224 809.852 28.7969C809.56 28.3646 809.414 27.8984 809.414 27.3984H810.859C810.885 27.8828 811.078 28.2682 811.438 28.5547C811.802 28.8359 812.281 28.9766 812.875 28.9766C813.422 28.9766 813.859 28.8672 814.188 28.6484C814.521 28.4245 814.688 28.1276 814.688 27.7578Z" fill="black"/>
<defs>
<clipPath id="clip0">
<rect width="195" height="42" fill="white" transform="translate(0 5)"/>
</clipPath>
</defs>
</svg>
